Title: No

Country: Chile/2012

Language: Spanish

No Subtitle

Director: Pablo Larraín

Writers: Antonio Skármeta (play), Pedro Peirano (screenplay)

Stars: Gael García Bernal, Alfredo Castro and Antonia Zegers 

Plot: Military dictator Augusto Pinochet calls for a referendum to decide his permanence in power in 1988, the leaders of the opposition persuade a young daring advertising executive - René Saavedra - to head their campaign. With limited resources and under the constant scrutiny of the despot's watchmen, Saavedra and his team conceive of a bold plan to win the election and free their country from oppression. Nominated for Oscar from Best Foreign Language Film of the Year 2012.

Imdb: 
http://www.imdb.com/title/tt2059255/?ref_=fn_al_tt_1


Rip Specs

General
Complete name                    : No.2012.DVDRip.XviD.HORiZON-ArtSubs.avi
Format                           : AVI
Format/Info                      : Audio Video Interleave
File size                        : 1.66 GiB
Duration                         : 1h 57mn
Overall bit rate                 : 2 018 Kbps
Writing application              : FairUse Wizard - http://fairusewizard.com
Writing library                  : The best and REALLY easy backup tool

Video
ID                               : 0
Format                           : AVC
Format/Info                      : Advanced Video Codec
Format profile                   : Main@L3.0
Format settings, CABAC           : Yes
Format settings, ReFrames        : 2 frames
Codec ID                         : H264
Duration                         : 1h 57mn
Bit rate                         : 1 881 Kbps
Width                            : 560 pixels
Height                           : 392 pixels
Display aspect ratio             : 1.429
Frame rate                       : 23.976 fps
Color space                      : YUV
Chroma subsampling               : 4:2:0
Bit depth                        : 8 bits
Scan type                        : Progressive
Bits/(Pixel*Frame)               : 0.357
Stream size                      : 1.55 GiB (93%)
Writing library                  : x264 core 93 r1538bm bd72d46
Encoding settings                : cabac=1 / ref=1 / deblock=1:0:0 / analyse=0x1:0x131 / me=hex / subme=4 / psy=1 / psy_rd=0.00:0.00 / mixed_ref=0 / me_range=16 / chroma_me=0 / trellis=1 / 8x8dct=0 / cqm=0 / deadzone=21,11 / fast_pskip=1 / chroma_qp_offset=0 / threads=2 / sliced_threads=1 / slices=2 / nr=0 / decimate=1 / interlaced=0 / constrained_intra=0 / bframes=2 / b_pyramid=0 / b_adapt=1 / b_bias=0 / direct=1 / wpredb=1 / wpredp=2 / keyint=250 / keyint_min=25 / scenecut=40 / intra_refresh=0 / rc=2pass / mbtree=0 / bitrate=1881 / ratetol=1.0 / qcomp=0.60 / qpmin=10 / qpmax=51 / qpstep=4 / cplxblur=20.0 / qblur=0.5 / ip_ratio=1.40 / pb_ratio=1.30 / aq=1:1.00

Audio
ID                               : 1
Format                           : MPEG Audio
Format version                   : Version 1
Format profile                   : Layer 3
Mode                             : Joint stereo
Mode extension                   : MS Stereo
Codec ID                         : 55
Codec ID/Hint                    : MP3
Duration                         : 1h 57mn
Bit rate mode                    : Constant
Bit rate                         : 128 Kbps
Channel(s)                       : 2 channels
Sampling rate                    : 48.0 KHz
Compression mode                 : Lossy
Stream size                      : 108 MiB (6%)
Alignment                        : Aligned on interleaves
Interleave, duration             : 42 ms (1.00 video frame)
Interleave, preload duration     : 504 ms
Writing library                  : LAME3.97 
Encoding settings                : -m j -V 4 -q 2 -lowpass 17 -b 128
